<?xml version="1.0" encoding="UTF-8"?>
<svg id="_图层_1" data-name="图层_1" xmlns="http://www.w3.org/2000/svg" version="1.1" viewBox="0 0 200 200">
  <!-- Generator: Adobe Illustrator 29.0.1, SVG Export Plug-In . SVG Version: 2.1.0 Build 192)  -->
  <defs>
    <style>
      .st0 {
        fill: none;
        stroke: #1296db;
        stroke-miterlimit: 10;
      }

      .st1 {
        fill: #1296db;
      }
    </style>
  </defs>
  <path class="st0" d="M170.8,39.2c-1.1,0-2.2.4-2.9,1.2l-17.9,17.9h-16.7s-17.9-17.9-17.9-17.9c-.8-.8-1.8-1.2-2.9-1.2-2.3,0-4.2,1.9-4.2,4.2v34.5c-19.3-5.5-41.3-3.1-58.3,7.2v-43.4h0c0-4.6-3.7-8.3-8.3-8.3,0,0,0,0,0,0-4.6,0-8.3,3.7-8.3,8.3v129.2c0,6.9,5.6,12.5,12.5,12.5s12.5-5.6,12.5-12.5v-31.6c18.7-7.7,39.7-7.7,58.3,0v31.6c0,6.9,5.6,12.5,12.5,12.5s12.5-5.6,12.5-12.5v-41.7c-9.9,0-19.5-3.2-27.4-9.1-2.8-2.1-3.3-6-1.3-8.7,0,0,0,0,0,0h0c2-2.7,5.8-3.3,8.6-1.4,5.6,4.2,12.6,6.8,20.1,6.8,18.4,0,33.3-14.9,33.3-33.3v-39.9c0-2.3-1.9-4.2-4.2-4.2ZM127.1,87.5c-3.5,0-6.2-2.8-6.2-6.2s2.8-6.2,6.2-6.2,6.2,2.8,6.2,6.2-2.8,6.2-6.2,6.2ZM158.3,87.5c-3.5,0-6.2-2.8-6.2-6.2s2.8-6.2,6.2-6.2,6.2,2.8,6.2,6.2-2.8,6.2-6.2,6.2Z"/>
  <circle class="st1" cx="130.9" cy="81.5" r="2.4"/>
  <circle class="st1" cx="162.1" cy="81.5" r="2.4"/>
</svg>