<?xml version="1.0" encoding="UTF-8"?>
<svg id="_图层_2" data-name="图层 2" xmlns="http://www.w3.org/2000/svg" viewBox="0 0 900 127.77">
  <defs>
    <style>
      .cls-1 {
        fill: #00ff5b;
      }
    </style>
  </defs>
  <g id="_图层_1-2" data-name="图层 1">
    <g id="index">
      <path class="cls-1" d="M131.06,6.48c-1.14,21.27-1.56,42.88-.5,64.18.14,5.12,1.23,11.34,3.43,15.1,6.27,11.09,21.97,12.03,34.02,12.4,20.58.08,35.77-3.48,38.68-26.43,1.28-10.2,1.46-20.52,1.22-30.86-.26-11.23-1.01-22.6-2.31-33.78,0,0,28.81-2.69,28.81-2.69.98,18.2,1.44,36.34.36,54.6-.41,6.21-.88,12.95-2.04,19.07-7.46,42.58-47.1,53-84.87,46.45-25.3-4.49-42.29-20.95-44.98-47.16-1.51-18.1-1.43-36.31-1.2-54.43.1-5.97.24-11.82.48-17.93l28.9,1.48h0Z"/>
      <rect class="cls-1" x="874.23" y="99.09" width="25.77" height="25.77"/>
      <rect class="cls-1" x="414.67" y="5.74" width="28.94" height="119.55"/>
      <polygon class="cls-1" points="28.94 98.19 28.94 5.74 0 5.74 0 124.23 27.97 124.23 28.94 124.23 101.28 124.23 101.28 98.19 28.94 98.19"/>
      <polygon class="cls-1" points="673.37 5.74 673.37 50.91 601.03 50.91 601.03 5.74 572.09 5.74 572.09 125.29 601.03 125.29 601.03 76.95 673.37 76.95 673.37 125.29 702.31 125.29 702.31 5.74 673.37 5.74"/>
      <path class="cls-1" d="M564.29,30.56V5.74h-95.48v26.04h66.57c.44,10.39,1.34,40.26.3,50.75-.4,4.03-1.62,16.3-24.79,16.3-2.83,0-27.61-.42-27.61-14.96h-28.94c0,26.26,22.72,43.9,56.54,43.9,30.46,0,50.99-16.24,53.59-42.38,1.43-14.42-.01-50.8-.18-54.83Z"/>
      <polygon class="cls-1" points="376.19 5.74 376.19 5.87 318.15 55.9 274.91 5.74 274.91 5.74 274.91 5.74 245.97 5.74 245.97 125.29 274.91 125.29 274.91 45.63 330.18 109.75 349.91 92.75 335.16 75.63 376.19 40.26 376.19 125.29 405.13 125.29 405.13 5.74 376.19 5.74"/>
      <path class="cls-1" d="M839.15,125.29h26.67L788.95.07l-.04-.07h0s0,0,0,0l-.04.07-76.87,125.21h26.67l9.47-15.37h81.55l9.47,15.37ZM764.19,83.87l24.72-40.12,24.72,40.12h-49.45Z"/>
    </g>
  </g>
</svg>